<mxfile host="app.diagrams.net" modified="2024-05-31T17:23:38.674Z" agent="Mozilla/5.0 (Windows NT 10.0; Win64; x64) AppleWebKit/537.36 (KHTML, like Gecko) Chrome/125.0.0.0 Safari/537.36 Edg/125.0.0.0" version="24.4.13" etag="xpQbKFGBJNkV0jNefNQO" type="github">
  <diagram name="PÃ¡gina-1" id="U4eW-_28XuIDR0SW7HZp">
    <mxGraphModel>
      <root>
        <mxCell id="0" />
        <mxCell id="1" parent="0" />
      </root>
    </mxGraphModel>
  </diagram>
</mxfile>
